<mxfile host="app.diagrams.net" modified="2024-06-14T13:35:28.798Z" agent="Mozilla/5.0 (Windows NT 10.0; Win64; x64) AppleWebKit/537.36 (KHTML, like Gecko) Chrome/125.0.0.0 Safari/537.36" etag="FgiDqLyAvD2NXkvlr5bg" version="24.5.3" type="device">
  <diagram name="Сторінка-1" id="EAt1Hj7CM0DO6zLZWjyT">
    <mxGraphModel dx="1394" dy="725" grid="1" gridSize="10" guides="1" tooltips="1" connect="1" arrows="1" fold="1" page="1" pageScale="1" pageWidth="827" pageHeight="1169" math="0" shadow="0">
      <root>
        <mxCell id="0" />
        <mxCell id="1" parent="0" />
        <mxCell id="E5LQXR_ByXJPgkd1oB9R-3" value="" style="edgeStyle=orthogonalEdgeStyle;rounded=0;orthogonalLoop=1;jettySize=auto;html=1;" parent="1" source="E5LQXR_ByXJPgkd1oB9R-1" target="E5LQXR_ByXJPgkd1oB9R-2" edge="1">
          <mxGeometry relative="1" as="geometry" />
        </mxCell>
        <mxCell id="E5LQXR_ByXJPgkd1oB9R-1" value="START" style="rounded=0;whiteSpace=wrap;html=1;" parent="1" vertex="1">
          <mxGeometry x="170" y="120" width="80" height="30" as="geometry" />
        </mxCell>
        <mxCell id="E5LQXR_ByXJPgkd1oB9R-2" value="If button was&lt;div&gt;&amp;nbsp;pressed ?&lt;/div&gt;" style="rhombus;whiteSpace=wrap;html=1;" parent="1" vertex="1">
          <mxGeometry x="150" y="200" width="120" height="80" as="geometry" />
        </mxCell>
        <mxCell id="E5LQXR_ByXJPgkd1oB9R-8" value="" style="edgeStyle=orthogonalEdgeStyle;rounded=0;orthogonalLoop=1;jettySize=auto;html=1;" parent="1" source="E5LQXR_ByXJPgkd1oB9R-4" target="E5LQXR_ByXJPgkd1oB9R-7" edge="1">
          <mxGeometry relative="1" as="geometry" />
        </mxCell>
        <mxCell id="E5LQXR_ByXJPgkd1oB9R-4" value="Make RX mode" style="rounded=1;whiteSpace=wrap;html=1;" parent="1" vertex="1">
          <mxGeometry x="300" y="380" width="120" height="40" as="geometry" />
        </mxCell>
        <mxCell id="E5LQXR_ByXJPgkd1oB9R-6" value="YES" style="text;html=1;align=center;verticalAlign=middle;resizable=0;points=[];autosize=1;strokeColor=none;fillColor=none;" parent="1" vertex="1">
          <mxGeometry x="325" y="208" width="50" height="30" as="geometry" />
        </mxCell>
        <mxCell id="E5LQXR_ByXJPgkd1oB9R-11" value="" style="edgeStyle=orthogonalEdgeStyle;rounded=0;orthogonalLoop=1;jettySize=auto;html=1;" parent="1" source="E5LQXR_ByXJPgkd1oB9R-7" target="E5LQXR_ByXJPgkd1oB9R-10" edge="1">
          <mxGeometry relative="1" as="geometry" />
        </mxCell>
        <mxCell id="E5LQXR_ByXJPgkd1oB9R-7" value="Wait settings data" style="rounded=1;whiteSpace=wrap;html=1;" parent="1" vertex="1">
          <mxGeometry x="300" y="460" width="120" height="40" as="geometry" />
        </mxCell>
        <mxCell id="E5LQXR_ByXJPgkd1oB9R-9" value="Settings:&lt;div&gt;1. TX address&lt;br&gt;2. Time to sleep&lt;/div&gt;&lt;div&gt;3. Time&lt;/div&gt;" style="text;html=1;align=center;verticalAlign=middle;resizable=0;points=[];autosize=1;strokeColor=none;fillColor=none;" parent="1" vertex="1">
          <mxGeometry x="414" y="460" width="110" height="70" as="geometry" />
        </mxCell>
        <mxCell id="E5LQXR_ByXJPgkd1oB9R-10" value="Save settings (into flash memory)" style="rounded=1;whiteSpace=wrap;html=1;" parent="1" vertex="1">
          <mxGeometry x="300" y="540" width="120" height="40" as="geometry" />
        </mxCell>
        <mxCell id="E5LQXR_ByXJPgkd1oB9R-12" value="Make TX mode" style="rounded=1;whiteSpace=wrap;html=1;" parent="1" vertex="1">
          <mxGeometry x="40" y="580" width="110" height="40" as="geometry" />
        </mxCell>
        <mxCell id="_YGtHoCkZKJcjlJyTd3E-3" value="" style="edgeStyle=orthogonalEdgeStyle;rounded=0;orthogonalLoop=1;jettySize=auto;html=1;" edge="1" parent="1" source="E5LQXR_ByXJPgkd1oB9R-13" target="_YGtHoCkZKJcjlJyTd3E-2">
          <mxGeometry relative="1" as="geometry" />
        </mxCell>
        <mxCell id="E5LQXR_ByXJPgkd1oB9R-13" value="Measuer TH" style="rounded=1;whiteSpace=wrap;html=1;" parent="1" vertex="1">
          <mxGeometry x="40" y="440" width="110" height="40" as="geometry" />
        </mxCell>
        <mxCell id="E5LQXR_ByXJPgkd1oB9R-18" value="" style="edgeStyle=orthogonalEdgeStyle;rounded=0;orthogonalLoop=1;jettySize=auto;html=1;" parent="1" source="E5LQXR_ByXJPgkd1oB9R-15" target="E5LQXR_ByXJPgkd1oB9R-17" edge="1">
          <mxGeometry relative="1" as="geometry" />
        </mxCell>
        <mxCell id="E5LQXR_ByXJPgkd1oB9R-15" value="Transmeet data to RX" style="rounded=1;whiteSpace=wrap;html=1;" parent="1" vertex="1">
          <mxGeometry x="40" y="645" width="110" height="40" as="geometry" />
        </mxCell>
        <mxCell id="E5LQXR_ByXJPgkd1oB9R-17" value="SLEEP" style="rounded=1;whiteSpace=wrap;html=1;" parent="1" vertex="1">
          <mxGeometry x="40" y="710" width="110" height="40" as="geometry" />
        </mxCell>
        <mxCell id="E5LQXR_ByXJPgkd1oB9R-19" value="Woke Up" style="rounded=1;whiteSpace=wrap;html=1;" parent="1" vertex="1">
          <mxGeometry x="40" y="330" width="110" height="40" as="geometry" />
        </mxCell>
        <mxCell id="E5LQXR_ByXJPgkd1oB9R-23" value="" style="endArrow=classic;html=1;rounded=0;exitX=0.5;exitY=1;exitDx=0;exitDy=0;" parent="1" source="E5LQXR_ByXJPgkd1oB9R-10" edge="1">
          <mxGeometry width="50" height="50" relative="1" as="geometry">
            <mxPoint x="390" y="584" as="sourcePoint" />
            <mxPoint x="210" y="180" as="targetPoint" />
            <Array as="points">
              <mxPoint x="360" y="780" />
              <mxPoint x="10" y="780" />
              <mxPoint x="10" y="180" />
            </Array>
          </mxGeometry>
        </mxCell>
        <mxCell id="E5LQXR_ByXJPgkd1oB9R-24" value="NO" style="text;html=1;align=center;verticalAlign=middle;resizable=0;points=[];autosize=1;strokeColor=none;fillColor=none;" parent="1" vertex="1">
          <mxGeometry x="95" y="208" width="40" height="30" as="geometry" />
        </mxCell>
        <mxCell id="E5LQXR_ByXJPgkd1oB9R-25" value="TX Dev" style="text;html=1;align=center;verticalAlign=middle;resizable=0;points=[];autosize=1;strokeColor=none;fillColor=none;" parent="1" vertex="1">
          <mxGeometry x="170" y="80" width="60" height="30" as="geometry" />
        </mxCell>
        <mxCell id="E5LQXR_ByXJPgkd1oB9R-26" value="RX Dev" style="text;html=1;align=center;verticalAlign=middle;resizable=0;points=[];autosize=1;strokeColor=none;fillColor=none;" parent="1" vertex="1">
          <mxGeometry x="830" y="70" width="60" height="30" as="geometry" />
        </mxCell>
        <mxCell id="E5LQXR_ByXJPgkd1oB9R-27" value="START" style="rounded=0;whiteSpace=wrap;html=1;" parent="1" vertex="1">
          <mxGeometry x="820" y="120" width="80" height="30" as="geometry" />
        </mxCell>
        <mxCell id="E5LQXR_ByXJPgkd1oB9R-28" value="If button was&lt;div&gt;&amp;nbsp;pressed ?&lt;/div&gt;" style="rhombus;whiteSpace=wrap;html=1;" parent="1" vertex="1">
          <mxGeometry x="800" y="200" width="120" height="80" as="geometry" />
        </mxCell>
        <mxCell id="E5LQXR_ByXJPgkd1oB9R-29" value="" style="endArrow=classic;html=1;rounded=0;entryX=0.5;entryY=0;entryDx=0;entryDy=0;exitX=0;exitY=0.5;exitDx=0;exitDy=0;" parent="1" source="E5LQXR_ByXJPgkd1oB9R-2" target="E5LQXR_ByXJPgkd1oB9R-19" edge="1">
          <mxGeometry width="50" height="50" relative="1" as="geometry">
            <mxPoint x="410" y="470" as="sourcePoint" />
            <mxPoint x="460" y="420" as="targetPoint" />
            <Array as="points">
              <mxPoint x="95" y="240" />
            </Array>
          </mxGeometry>
        </mxCell>
        <mxCell id="E5LQXR_ByXJPgkd1oB9R-31" value="Make TX mode" style="rounded=1;whiteSpace=wrap;html=1;" parent="1" vertex="1">
          <mxGeometry x="660" y="280" width="120" height="40" as="geometry" />
        </mxCell>
        <mxCell id="E5LQXR_ByXJPgkd1oB9R-32" value="" style="shape=flexArrow;endArrow=classic;html=1;rounded=0;entryX=1.032;entryY=0.488;entryDx=0;entryDy=0;entryPerimeter=0;" parent="1" target="E5LQXR_ByXJPgkd1oB9R-9" edge="1">
          <mxGeometry width="50" height="50" relative="1" as="geometry">
            <mxPoint x="650" y="550" as="sourcePoint" />
            <mxPoint x="530" y="590" as="targetPoint" />
          </mxGeometry>
        </mxCell>
        <mxCell id="E5LQXR_ByXJPgkd1oB9R-33" value="Set default pipe address" style="text;html=1;align=center;verticalAlign=middle;resizable=0;points=[];autosize=1;strokeColor=none;fillColor=none;" parent="1" vertex="1">
          <mxGeometry x="414" y="385" width="150" height="30" as="geometry" />
        </mxCell>
        <mxCell id="E5LQXR_ByXJPgkd1oB9R-34" value="" style="endArrow=classic;html=1;rounded=0;entryX=0.5;entryY=0;entryDx=0;entryDy=0;exitX=0.5;exitY=1;exitDx=0;exitDy=0;" parent="1" source="E5LQXR_ByXJPgkd1oB9R-27" target="E5LQXR_ByXJPgkd1oB9R-28" edge="1">
          <mxGeometry width="50" height="50" relative="1" as="geometry">
            <mxPoint x="560" y="450" as="sourcePoint" />
            <mxPoint x="610" y="400" as="targetPoint" />
          </mxGeometry>
        </mxCell>
        <mxCell id="E5LQXR_ByXJPgkd1oB9R-35" value="Set CLI (Зробити можливвість вводу:&lt;br&gt;1. TX унікальний адрес&lt;br&gt;2. Час засинання&lt;br&gt;3. Час для RTC)" style="rounded=1;whiteSpace=wrap;html=1;" parent="1" vertex="1">
          <mxGeometry x="660" y="350" width="120" height="130" as="geometry" />
        </mxCell>
        <mxCell id="E5LQXR_ByXJPgkd1oB9R-36" value="" style="endArrow=classic;html=1;rounded=0;entryX=0.506;entryY=-0.018;entryDx=0;entryDy=0;entryPerimeter=0;exitX=0.5;exitY=1;exitDx=0;exitDy=0;" parent="1" source="E5LQXR_ByXJPgkd1oB9R-31" target="E5LQXR_ByXJPgkd1oB9R-35" edge="1">
          <mxGeometry width="50" height="50" relative="1" as="geometry">
            <mxPoint x="560" y="400" as="sourcePoint" />
            <mxPoint x="610" y="350" as="targetPoint" />
          </mxGeometry>
        </mxCell>
        <mxCell id="E5LQXR_ByXJPgkd1oB9R-37" value="Send settings to RX" style="rounded=1;whiteSpace=wrap;html=1;" parent="1" vertex="1">
          <mxGeometry x="660" y="530" width="120" height="40" as="geometry" />
        </mxCell>
        <mxCell id="E5LQXR_ByXJPgkd1oB9R-38" value="" style="endArrow=classic;html=1;rounded=0;entryX=0.502;entryY=-0.065;entryDx=0;entryDy=0;entryPerimeter=0;exitX=0.5;exitY=1;exitDx=0;exitDy=0;" parent="1" source="E5LQXR_ByXJPgkd1oB9R-35" target="E5LQXR_ByXJPgkd1oB9R-37" edge="1">
          <mxGeometry width="50" height="50" relative="1" as="geometry">
            <mxPoint x="580" y="530" as="sourcePoint" />
            <mxPoint x="630" y="480" as="targetPoint" />
          </mxGeometry>
        </mxCell>
        <mxCell id="E5LQXR_ByXJPgkd1oB9R-40" value="" style="endArrow=classic;html=1;rounded=0;exitX=0.479;exitY=1.002;exitDx=0;exitDy=0;exitPerimeter=0;" parent="1" source="E5LQXR_ByXJPgkd1oB9R-37" edge="1">
          <mxGeometry width="50" height="50" relative="1" as="geometry">
            <mxPoint x="850" y="470" as="sourcePoint" />
            <mxPoint x="860" y="170" as="targetPoint" />
            <Array as="points">
              <mxPoint x="717" y="680" />
              <mxPoint x="1210" y="680" />
              <mxPoint x="1200" y="170" />
            </Array>
          </mxGeometry>
        </mxCell>
        <mxCell id="E5LQXR_ByXJPgkd1oB9R-41" value="" style="endArrow=classic;html=1;rounded=0;entryX=0.5;entryY=0;entryDx=0;entryDy=0;exitX=0;exitY=0.5;exitDx=0;exitDy=0;" parent="1" source="E5LQXR_ByXJPgkd1oB9R-28" target="E5LQXR_ByXJPgkd1oB9R-31" edge="1">
          <mxGeometry width="50" height="50" relative="1" as="geometry">
            <mxPoint x="850" y="470" as="sourcePoint" />
            <mxPoint x="900" y="420" as="targetPoint" />
            <Array as="points">
              <mxPoint x="720" y="240" />
            </Array>
          </mxGeometry>
        </mxCell>
        <mxCell id="E5LQXR_ByXJPgkd1oB9R-42" value="Make RX mode" style="rounded=1;whiteSpace=wrap;html=1;" parent="1" vertex="1">
          <mxGeometry x="980" y="415" width="120" height="40" as="geometry" />
        </mxCell>
        <mxCell id="E5LQXR_ByXJPgkd1oB9R-43" value="" style="endArrow=classic;html=1;rounded=0;entryX=0.509;entryY=-0.07;entryDx=0;entryDy=0;entryPerimeter=0;exitX=1.009;exitY=0.478;exitDx=0;exitDy=0;exitPerimeter=0;" parent="1" source="E5LQXR_ByXJPgkd1oB9R-28" target="E5LQXR_ByXJPgkd1oB9R-42" edge="1">
          <mxGeometry width="50" height="50" relative="1" as="geometry">
            <mxPoint x="920" y="242.72" as="sourcePoint" />
            <mxPoint x="1043.96" y="280" as="targetPoint" />
            <Array as="points">
              <mxPoint x="1040" y="240" />
            </Array>
          </mxGeometry>
        </mxCell>
        <mxCell id="E5LQXR_ByXJPgkd1oB9R-44" value="Reseive data and send it ower UART" style="rounded=1;whiteSpace=wrap;html=1;" parent="1" vertex="1">
          <mxGeometry x="980" y="540" width="120" height="40" as="geometry" />
        </mxCell>
        <mxCell id="E5LQXR_ByXJPgkd1oB9R-46" value="Interrupt" style="text;html=1;align=center;verticalAlign=middle;resizable=0;points=[];autosize=1;strokeColor=none;fillColor=none;" parent="1" vertex="1">
          <mxGeometry x="865" y="188" width="70" height="30" as="geometry" />
        </mxCell>
        <mxCell id="E5LQXR_ByXJPgkd1oB9R-48" value="Make LED Blink" style="rounded=1;whiteSpace=wrap;html=1;" parent="1" vertex="1">
          <mxGeometry x="300" y="310" width="120" height="40" as="geometry" />
        </mxCell>
        <mxCell id="E5LQXR_ByXJPgkd1oB9R-49" value="" style="endArrow=classic;html=1;rounded=0;exitX=1.001;exitY=0.466;exitDx=0;exitDy=0;exitPerimeter=0;entryX=0.5;entryY=0;entryDx=0;entryDy=0;" parent="1" source="E5LQXR_ByXJPgkd1oB9R-2" target="E5LQXR_ByXJPgkd1oB9R-48" edge="1">
          <mxGeometry width="50" height="50" relative="1" as="geometry">
            <mxPoint x="380" y="490" as="sourcePoint" />
            <mxPoint x="430" y="440" as="targetPoint" />
            <Array as="points">
              <mxPoint x="360" y="237" />
            </Array>
          </mxGeometry>
        </mxCell>
        <mxCell id="E5LQXR_ByXJPgkd1oB9R-50" value="" style="endArrow=classic;html=1;rounded=0;exitX=0.479;exitY=1.022;exitDx=0;exitDy=0;exitPerimeter=0;entryX=0.475;entryY=-0.035;entryDx=0;entryDy=0;entryPerimeter=0;" parent="1" source="E5LQXR_ByXJPgkd1oB9R-48" target="E5LQXR_ByXJPgkd1oB9R-4" edge="1">
          <mxGeometry width="50" height="50" relative="1" as="geometry">
            <mxPoint x="380" y="500" as="sourcePoint" />
            <mxPoint x="430" y="450" as="targetPoint" />
          </mxGeometry>
        </mxCell>
        <mxCell id="_YGtHoCkZKJcjlJyTd3E-1" value="" style="endArrow=classic;html=1;rounded=0;exitX=0.5;exitY=1;exitDx=0;exitDy=0;" edge="1" parent="1" source="E5LQXR_ByXJPgkd1oB9R-17">
          <mxGeometry width="50" height="50" relative="1" as="geometry">
            <mxPoint x="350" y="680" as="sourcePoint" />
            <mxPoint x="95" y="780" as="targetPoint" />
          </mxGeometry>
        </mxCell>
        <mxCell id="_YGtHoCkZKJcjlJyTd3E-2" value="Read Time" style="rounded=1;whiteSpace=wrap;html=1;" vertex="1" parent="1">
          <mxGeometry x="40" y="510" width="110" height="40" as="geometry" />
        </mxCell>
        <mxCell id="_YGtHoCkZKJcjlJyTd3E-5" value="" style="endArrow=classic;html=1;rounded=0;exitX=0.5;exitY=1;exitDx=0;exitDy=0;entryX=0.501;entryY=-0.075;entryDx=0;entryDy=0;entryPerimeter=0;" edge="1" parent="1" source="_YGtHoCkZKJcjlJyTd3E-2" target="E5LQXR_ByXJPgkd1oB9R-12">
          <mxGeometry width="50" height="50" relative="1" as="geometry">
            <mxPoint x="520" y="580" as="sourcePoint" />
            <mxPoint x="570" y="530" as="targetPoint" />
          </mxGeometry>
        </mxCell>
        <mxCell id="_YGtHoCkZKJcjlJyTd3E-6" value="" style="endArrow=classic;html=1;rounded=0;exitX=0.5;exitY=1;exitDx=0;exitDy=0;entryX=0.492;entryY=-0.06;entryDx=0;entryDy=0;entryPerimeter=0;" edge="1" parent="1" source="E5LQXR_ByXJPgkd1oB9R-12" target="E5LQXR_ByXJPgkd1oB9R-15">
          <mxGeometry width="50" height="50" relative="1" as="geometry">
            <mxPoint x="520" y="580" as="sourcePoint" />
            <mxPoint x="570" y="530" as="targetPoint" />
          </mxGeometry>
        </mxCell>
        <mxCell id="_YGtHoCkZKJcjlJyTd3E-7" value="" style="endArrow=classic;html=1;rounded=0;exitX=0.467;exitY=0.975;exitDx=0;exitDy=0;exitPerimeter=0;entryX=0.467;entryY=0;entryDx=0;entryDy=0;entryPerimeter=0;" edge="1" parent="1" source="E5LQXR_ByXJPgkd1oB9R-19" target="E5LQXR_ByXJPgkd1oB9R-13">
          <mxGeometry width="50" height="50" relative="1" as="geometry">
            <mxPoint x="520" y="580" as="sourcePoint" />
            <mxPoint x="570" y="530" as="targetPoint" />
          </mxGeometry>
        </mxCell>
        <mxCell id="_YGtHoCkZKJcjlJyTd3E-8" value="" style="endArrow=classic;html=1;rounded=0;exitX=0.5;exitY=1;exitDx=0;exitDy=0;" edge="1" parent="1" source="E5LQXR_ByXJPgkd1oB9R-44">
          <mxGeometry width="50" height="50" relative="1" as="geometry">
            <mxPoint x="590" y="450" as="sourcePoint" />
            <mxPoint x="1040" y="680" as="targetPoint" />
          </mxGeometry>
        </mxCell>
        <mxCell id="_YGtHoCkZKJcjlJyTd3E-10" value="" style="endArrow=classic;html=1;rounded=0;exitX=0.5;exitY=1;exitDx=0;exitDy=0;entryX=0.5;entryY=0;entryDx=0;entryDy=0;" edge="1" parent="1" source="E5LQXR_ByXJPgkd1oB9R-42" target="E5LQXR_ByXJPgkd1oB9R-44">
          <mxGeometry width="50" height="50" relative="1" as="geometry">
            <mxPoint x="590" y="450" as="sourcePoint" />
            <mxPoint x="1040" y="500" as="targetPoint" />
          </mxGeometry>
        </mxCell>
        <mxCell id="_YGtHoCkZKJcjlJyTd3E-12" value="" style="shape=flexArrow;endArrow=classic;html=1;rounded=0;" edge="1" parent="1">
          <mxGeometry width="50" height="50" relative="1" as="geometry">
            <mxPoint x="170" y="660" as="sourcePoint" />
            <mxPoint x="970" y="560" as="targetPoint" />
          </mxGeometry>
        </mxCell>
        <mxCell id="_YGtHoCkZKJcjlJyTd3E-13" value="Data T,H,Voltage, Time Date, signal quality, counter&amp;nbsp;" style="text;html=1;align=center;verticalAlign=middle;resizable=0;points=[];autosize=1;strokeColor=none;fillColor=none;" vertex="1" parent="1">
          <mxGeometry x="390" y="640" width="300" height="30" as="geometry" />
        </mxCell>
      </root>
    </mxGraphModel>
  </diagram>
</mxfile>
